<svg id="Calque_1" data-name="Calque 1" xmlns="http://www.w3.org/2000/svg" viewBox="0 0 1814.99 385.27"><defs><style>.cls-1,.cls-4{fill:#fff;}.cls-2,.cls-5,.cls-6{font-size:60px;}.cls-2{font-family:CambriaMath, Cambria Math;}.cls-3,.cls-4{stroke:#000;stroke-miterlimit:10;}.cls-5,.cls-6{font-family:ACaslonPro-Italic, Adobe Caslon Pro;font-style:italic;}.cls-5{letter-spacing:0.01em;}</style></defs><rect class="cls-1" x="0.5" y="0.5" width="384" height="384"/><path d="M428,348.72v383H45v-383H428m1-1H44v385H429v-385Z" transform="translate(-44 -347.72)"/><rect class="cls-1" x="477.16" y="0.5" width="384" height="384"/><path d="M904.66,348.72v383h-383v-383h383m1-1h-385v385h385v-385Z" transform="translate(-44 -347.72)"/><rect class="cls-1" x="953.83" y="0.5" width="384" height="384"/><path d="M1381.32,348.72v383h-383v-383h383m1-1h-385v385h385v-385Z" transform="translate(-44 -347.72)"/><rect class="cls-1" x="1430.49" y="0.78" width="384" height="384"/><path d="M1858,349V732H1475V349h383m1-1H1474V733h385V348Z" transform="translate(-44 -347.72)"/><text class="cls-2" transform="translate(413.35 201.08)">≃</text><text class="cls-2" transform="translate(888.3 192.29)">≃</text><text class="cls-2" transform="translate(1366.3 192.65)">≃</text><line class="cls-3" x1="192.5" x2="192.5" y2="385"/><line class="cls-3" x1="669.16" x2="669.16" y2="385"/><line class="cls-3" x1="861.66" y1="192.28" x2="476.66" y2="192.28"/><line class="cls-3" x1="1145.82" x2="1145.82" y2="385"/><line class="cls-3" x1="954" y1="192.28" x2="1338.32" y2="192.28"/><line class="cls-4" x1="1622.49" x2="1622.49" y2="385.27"/><text class="cls-5" transform="translate(89.78 200.61)">f</text><text class="cls-5" transform="translate(561.27 107.1)">f</text><text class="cls-5" transform="translate(1242.27 107.1)">f</text><text class="cls-5" transform="translate(1703.54 192.83)">f</text><text class="cls-6" transform="translate(281.34 192.81)">g</text><text class="cls-6" transform="translate(752.4 295.81)">g</text><text class="cls-6" transform="translate(1034.81 295.65)">g</text><text class="cls-6" transform="translate(1524.81 192.65)">g</text></svg>